# Blender 3.6.5
# www.blender.org
mtllib NYB2.mtl
o b1
v -0.193564 0.007318 -4.513336
v -0.193564 1.338219 -4.513336
v -0.193564 0.007318 -4.900465
v -0.193564 1.338219 -4.900465
v 0.193564 0.007318 -4.513336
v 0.193564 1.338219 -4.513336
v 0.193564 0.007318 -4.900465
v 0.193564 1.338219 -4.900465
vn -1.0000 -0.0000 -0.0000
vn -0.0000 -0.0000 -1.0000
vn 1.0000 -0.0000 -0.0000
vn -0.0000 -0.0000 1.0000
vn -0.0000 -1.0000 -0.0000
vn -0.0000 1.0000 -0.0000
vt 0.991821 0.029731
vt 0.991821 0.979007
vt 0.658842 0.979007
vt 0.658842 0.029731
vt 0.125000 0.500000
vt 0.375000 0.500000
vt 0.375000 0.750000
vt 0.125000 0.750000
vt 0.815401 0.662901
vt 0.839724 0.664497
vt 0.850779 0.909661
vt 0.803173 0.911934
s 0
usemtl Material.011
f 1/1/1 2/2/1 4/3/1 3/4/1
f 3/1/2 4/2/2 8/3/2 7/4/2
f 7/1/3 8/2/3 6/3/3 5/4/3
f 5/1/4 6/2/4 2/3/4 1/4/4
f 3/5/5 7/6/5 5/7/5 1/8/5
f 8/9/6 4/10/6 2/11/6 6/12/6
